<svg id="Layer_1" data-name="Layer 1" xmlns="http://www.w3.org/2000/svg" xmlns:xlink="http://www.w3.org/1999/xlink" viewBox="0 0 1366 768"><defs><style>.cls-1{fill:none;}.cls-2{fill:#d8efea;}.cls-3{fill:#2e81a7;}.cls-4{fill:#194052;}.cls-5{clip-path:url(#clip-path);}.cls-6{fill:#16a085;}.cls-7{fill:#ffb50d;}.cls-8{fill:#e88725;}.cls-9{fill:#fde7d5;}.cls-10{clip-path:url(#clip-path-2);}.cls-11{clip-path:url(#clip-path-3);}.cls-12{clip-path:url(#clip-path-4);}.cls-13{clip-path:url(#clip-path-5);}.cls-14{clip-path:url(#clip-path-6);}.cls-15{clip-path:url(#clip-path-7);}.cls-16{clip-path:url(#clip-path-8);}</style><clipPath id="clip-path"><rect class="cls-1" x="1277.58" y="174" width="88" height="123"/></clipPath><clipPath id="clip-path-2"><rect class="cls-1" x="973.58" y="183.99" width="64" height="195"/></clipPath><clipPath id="clip-path-3"><rect class="cls-1" x="832.58" y="167.99" width="45" height="202"/></clipPath><clipPath id="clip-path-4"><rect class="cls-1" x="877.58" y="167.99" width="81" height="202"/></clipPath><clipPath id="clip-path-5"><rect class="cls-1" x="31" y="622" width="299" height="146"/></clipPath><clipPath id="clip-path-6"><rect class="cls-1" x="293" y="622" width="299" height="146"/></clipPath><clipPath id="clip-path-7"><rect class="cls-1" x="937" y="622" width="429" height="146"/></clipPath><clipPath id="clip-path-8"><rect class="cls-1" x="270" y="671" width="204" height="97"/></clipPath></defs><title>GS_CO Homepage Illustrations</title><path id="Path_934" data-name="Path 934" class="cls-2" d="M532.58,526.05s3.41-21.5,29.88-17.6c-3.07-15.4,10-21.5,22-22.86s23.86,3.78,24.07,17.19c13.81-3.64,34.78-3.58,36.43,23.27Z"/><path id="Path_931" data-name="Path 931" class="cls-2" d="M680,226.91s9-20.69,35-17.81c-3.32-17.95,2.9-29.27,17.88-32.57s23.33,6.2,24.38,11.44c1.47-18.73,4.62-29,25.06-30.16s24.52,26,25.69,30.16c13.13-12.58,27.58-5,30.19,0s6.24,19,0,25c15.71-2.57,23.69,0,28.86,14Z"/><path id="Path_933" data-name="Path 933" class="cls-2" d="M254,618.91s4.62-10.6,17.91-9.12c-1.7-9.2,1.49-15,9.16-16.69s12,3.18,12.49,5.86c.76-9.59,2.37-14.84,12.84-15.45s12.56,13.34,13.16,15.45c6.73-6.44,14.12-2.57,15.47,0s3.19,9.74,0,12.8c8-1.31,12.13,0,14.78,7.15Z"/><path id="Path_928" data-name="Path 928" class="cls-3" d="M1205.58,216.86h68.12V318h-68.12Z"/><path id="Path_929" data-name="Path 929" class="cls-2" d="M1260,128.93h68.12l-54.43,88.32h-68.12Z"/><path id="Path_930" data-name="Path 930" class="cls-4" d="M1328,128.93v181.6h-54.43V217.25Z"/><g class="cls-5"><g id="Group_1427" data-name="Group 1427"><ellipse id="Ellipse_61" data-name="Ellipse 61" class="cls-6" cx="1334.66" cy="261.49" rx="39.5" ry="40.5"/><ellipse id="Ellipse_62" data-name="Ellipse 62" class="cls-6" cx="1359.66" cy="217.99" rx="25.5" ry="26"/></g></g><path id="Path_924" data-name="Path 924" class="cls-7" d="M1086.58,129.72l60-64.73v70.25h-60Z"/><path id="Path_925" data-name="Path 925" class="cls-8" d="M1206.58,129.72l-60-64.73v70.25h60Z"/><rect id="Rectangle_1510" data-name="Rectangle 1510" class="cls-9" x="1086.58" y="129.99" width="60" height="372"/><rect id="Rectangle_1511" data-name="Rectangle 1511" class="cls-7" x="1146.58" y="129.99" width="60" height="372"/><rect id="Rectangle_1495" data-name="Rectangle 1495" class="cls-3" x="1048.58" y="167.99" width="38" height="372"/><g id="Group_1421" data-name="Group 1421"><ellipse id="Ellipse_60" data-name="Ellipse 60" class="cls-6" cx="1087.08" cy="447.49" rx="58.5" ry="57.5"/><ellipse id="Ellipse_61-2" data-name="Ellipse 61-2" class="cls-6" cx="1183.08" cy="408.99" rx="78.5" ry="80"/><ellipse id="Ellipse_62-2" data-name="Ellipse 62-2" class="cls-6" cx="1227.08" cy="309.49" rx="50.5" ry="51.5"/></g><path id="Path_991" data-name="Path 991" class="cls-7" d="M1082.57,408.68h146.14a3.81,3.81,0,0,1,3.81,3.81h0v21.7a3.81,3.81,0,0,1-3.81,3.8H1078.39a3.8,3.8,0,0,1-3.81-3.8h0l3.81-19.22C1078.39,412.85,1080.47,408.68,1082.57,408.68Z"/><path id="Rectangle_1600" data-name="Rectangle 1600" class="cls-9" d="M1197.58,415h11a2,2,0,0,1,2,2v21h-15V417A2,2,0,0,1,1197.58,415Z"/><path id="Path_922" data-name="Path 922" class="cls-4" d="M1244.58,258.18V470h-38V380.33Z"/><path id="Path_913" data-name="Path 913" class="cls-8" d="M832.58,162l46-60V474h-46Z"/><rect id="Rectangle_1492" data-name="Rectangle 1492" class="cls-7" x="877.58" y="101.99" width="81" height="372"/><rect id="Rectangle_1494" data-name="Rectangle 1494" class="cls-4" x="958.58" y="167.99" width="90" height="372"/><g class="cls-10"><g id="Repeat_Grid_3" data-name="Repeat Grid 3"><rect id="Rectangle_1496" data-name="Rectangle 1496" class="cls-2" x="973.58" y="183.99" width="4" height="48"/><rect id="Rectangle_1496-2" data-name="Rectangle 1496-2" class="cls-2" x="988.58" y="183.99" width="4" height="48"/><rect id="Rectangle_1496-3" data-name="Rectangle 1496-3" class="cls-2" x="1003.58" y="183.99" width="4" height="48"/><rect id="Rectangle_1496-4" data-name="Rectangle 1496-4" class="cls-2" x="1018.58" y="183.99" width="4" height="48"/><rect id="Rectangle_1496-5" data-name="Rectangle 1496-5" class="cls-2" x="1033.58" y="183.99" width="4" height="48"/><rect id="Rectangle_1496-6" data-name="Rectangle 1496-6" class="cls-2" x="973.58" y="251.99" width="4" height="48"/><rect id="Rectangle_1496-7" data-name="Rectangle 1496-7" class="cls-2" x="988.58" y="251.99" width="4" height="48"/><rect id="Rectangle_1496-8" data-name="Rectangle 1496-8" class="cls-2" x="1003.58" y="251.99" width="4" height="48"/><rect id="Rectangle_1496-9" data-name="Rectangle 1496-9" class="cls-2" x="1018.58" y="251.99" width="4" height="48"/><rect id="Rectangle_1496-10" data-name="Rectangle 1496-10" class="cls-2" x="1033.58" y="251.99" width="4" height="48"/><rect id="Rectangle_1496-11" data-name="Rectangle 1496-11" class="cls-2" x="973.58" y="319.99" width="4" height="48"/><rect id="Rectangle_1496-12" data-name="Rectangle 1496-12" class="cls-2" x="988.58" y="319.99" width="4" height="48"/><rect id="Rectangle_1496-13" data-name="Rectangle 1496-13" class="cls-2" x="1003.58" y="319.99" width="4" height="48"/><rect id="Rectangle_1496-14" data-name="Rectangle 1496-14" class="cls-2" x="1018.58" y="319.99" width="4" height="48"/><rect id="Rectangle_1496-15" data-name="Rectangle 1496-15" class="cls-2" x="1033.58" y="319.99" width="4" height="48"/></g></g><path id="Path_912" data-name="Path 912" class="cls-3" d="M878.58,381h125.79l44.22,89h-170Z"/><path id="Path_914" data-name="Path 914" class="cls-4" d="M989.58,381h7.49l44.22,89h-7.21Z"/><path id="Path_915" data-name="Path 915" class="cls-4" d="M974.58,381h7.49l44.22,89h-7.21Z"/><path id="Path_916" data-name="Path 916" class="cls-4" d="M960.58,381h7.49l44.22,89h-7.21Z"/><path id="Path_917" data-name="Path 917" class="cls-4" d="M945.58,381h7.49l44.22,89h-7.21Z"/><path id="Path_918" data-name="Path 918" class="cls-4" d="M930.58,381h7.49l44.22,89h-7.21Z"/><path id="Path_919" data-name="Path 919" class="cls-4" d="M915.58,381h7.49l44.22,89h-7.21Z"/><path id="Path_920" data-name="Path 920" class="cls-4" d="M900.58,381h7.49l44.22,89h-7.21Z"/><path id="Path_921" data-name="Path 921" class="cls-4" d="M885.58,381h7.49l44.22,89h-7.21Z"/><rect id="Rectangle_1487" data-name="Rectangle 1487" class="cls-2" x="832.58" y="469.99" width="90" height="180"/><rect id="Rectangle_1488" data-name="Rectangle 1488" class="cls-4" x="922.58" y="469.99" width="90" height="180"/><rect id="Rectangle_1464" data-name="Rectangle 1464" class="cls-2" x="1244.58" y="257.99" width="121" height="212"/><rect id="Rectangle_1486" data-name="Rectangle 1486" class="cls-3" x="1244.58" y="469.99" width="121" height="272"/><g id="Group_1419" data-name="Group 1419"><g id="Group_1390" data-name="Group 1390"><path id="Path_892" data-name="Path 892" class="cls-6" d="M861.54,538.62v12.79H849.13Z"/><path id="Path_893" data-name="Path 893" class="cls-4" d="M861.54,538.62v12.79H874Z"/></g><g id="Group_1393" data-name="Group 1393"><g id="Group_1390-2" data-name="Group 1390-2"><path id="Path_892-2" data-name="Path 892-2" class="cls-6" d="M861.54,525.79v12.79H849.13Z"/><path id="Path_893-2" data-name="Path 893-2" class="cls-4" d="M861.54,525.79v12.79H874Z"/></g></g><g id="Group_1394" data-name="Group 1394"><g id="Group_1390-3" data-name="Group 1390-3"><path id="Path_892-3" data-name="Path 892-3" class="cls-6" d="M861.54,513v12.79H849.13Z"/><path id="Path_893-3" data-name="Path 893-3" class="cls-4" d="M861.54,513v12.79H874Z"/></g></g><g id="Group_1395" data-name="Group 1395"><g id="Group_1390-4" data-name="Group 1390-4"><path id="Path_892-4" data-name="Path 892-4" class="cls-6" d="M861.54,500.12v12.79H849.13Z"/><path id="Path_893-4" data-name="Path 893-4" class="cls-4" d="M861.54,500.12v12.79H874Z"/></g></g><rect id="Rectangle_1379" data-name="Rectangle 1379" class="cls-4" x="860.58" y="551.99" width="2" height="18"/></g><g id="Group_1420" data-name="Group 1420"><g id="Group_1390-5" data-name="Group 1390-5"><path id="Path_892-5" data-name="Path 892-5" class="cls-6" d="M893.54,525.62v12.79H881.13Z"/><path id="Path_893-5" data-name="Path 893-5" class="cls-4" d="M893.54,525.62v12.79H906Z"/></g><g id="Group_1393-2" data-name="Group 1393-2"><g id="Group_1390-6" data-name="Group 1390-6"><path id="Path_892-6" data-name="Path 892-6" class="cls-6" d="M893.54,512.79v12.79H881.13Z"/><path id="Path_893-6" data-name="Path 893-6" class="cls-4" d="M893.54,512.79v12.79H906Z"/></g></g><g id="Group_1394-2" data-name="Group 1394-2"><g id="Group_1390-7" data-name="Group 1390-7"><path id="Path_892-7" data-name="Path 892-7" class="cls-6" d="M893.54,500v12.79H881.13Z"/><path id="Path_893-7" data-name="Path 893-7" class="cls-4" d="M893.54,500v12.79H906Z"/></g></g><g id="Group_1395-2" data-name="Group 1395-2"><g id="Group_1390-8" data-name="Group 1390-8"><path id="Path_892-8" data-name="Path 892-8" class="cls-6" d="M893.54,487.12v12.79H881.13Z"/><path id="Path_893-8" data-name="Path 893-8" class="cls-4" d="M893.54,487.12v12.79H906Z"/></g></g><rect id="Rectangle_1379-2" data-name="Rectangle 1379-2" class="cls-4" x="892.58" y="538.99" width="2" height="18"/></g><g id="Group_1414" data-name="Group 1414"><ellipse id="Ellipse_60-2" data-name="Ellipse 60-2" class="cls-6" cx="800.08" cy="653.99" rx="61.5" ry="61"/><circle id="Ellipse_61-3" data-name="Ellipse 61-3" class="cls-6" cx="886.58" cy="637.99" r="83"/><circle id="Ellipse_62-3" data-name="Ellipse 62-3" class="cls-6" cx="976.58" cy="661.99" r="54"/></g><rect id="Rectangle_1447" data-name="Rectangle 1447" class="cls-7" x="958.58" y="519.99" width="248" height="211"/><rect id="Rectangle_1449" data-name="Rectangle 1449" class="cls-9" x="1206.58" y="519.99" width="83" height="211"/><path id="Path_903" data-name="Path 903" class="cls-8" d="M996.79,470h248l-38.21,50h-248Z"/><path id="Path_905" data-name="Path 905" class="cls-7" d="M1013.79,470h16.06l-38.21,50H975.58Z"/><path id="Path_906" data-name="Path 906" class="cls-7" d="M1046.79,470h16.06l-38.21,50h-16.06Z"/><path id="Path_907" data-name="Path 907" class="cls-7" d="M1079.79,470h16.06l-38.21,50h-16.06Z"/><path id="Path_908" data-name="Path 908" class="cls-7" d="M1112.79,470h16.06l-38.21,50h-16.06Z"/><g id="Group_1423" data-name="Group 1423"><path id="Path_894" data-name="Path 894" class="cls-6" d="M1253.64,648.37a13.5,13.5,0,1,1-13.5,13.5A13.5,13.5,0,0,1,1253.64,648.37Z"/><rect id="Rectangle_1381" data-name="Rectangle 1381" class="cls-6" x="1240.14" y="661.88" width="27.09" height="39.99"/></g><path id="Path_909" data-name="Path 909" class="cls-7" d="M1145.79,470h16.06l-38.21,50h-16.06Z"/><path id="Path_910" data-name="Path 910" class="cls-7" d="M1178.79,470h16.06l-38.21,50h-16.06Z"/><path id="Path_911" data-name="Path 911" class="cls-7" d="M1211.79,470h16.06l-38.21,50h-16.06Z"/><path id="Path_904" data-name="Path 904" class="cls-9" d="M1244.79,470h0l44.32,50h-82.53Z"/><rect id="Rectangle_1427" data-name="Rectangle 1427" class="cls-3" x="687.58" y="378.99" width="145" height="196"/><g id="Group_1397" data-name="Group 1397"><g id="Group_1390-9" data-name="Group 1390-9"><path id="Path_892-9" data-name="Path 892-9" class="cls-6" d="M214.9,653V747.2H182.37Z"/><path id="Path_893-9" data-name="Path 893-9" class="cls-4" d="M214.9,653V747.2h32.52Z"/></g></g><g id="Group_1391" data-name="Group 1391"><g id="Group_1390-11" data-name="Group 1390-11"><path id="Path_892-11" data-name="Path 892-11" class="cls-6" d="M272.85,586.93v181H233.22Z"/><path id="Path_893-11" data-name="Path 893-11" class="cls-4" d="M272.85,586.93v181h39.63Z"/></g></g><g id="Group_1417" data-name="Group 1417"><g id="Group_1390-12" data-name="Group 1390-12"><path id="Path_892-12" data-name="Path 892-12" class="cls-2" d="M1086.66,683.67V767.9h-18.44Z"/><path id="Path_893-12" data-name="Path 893-12" class="cls-6" d="M1086.66,683.67V767.9h18.45Z"/></g></g><path id="Path_895" data-name="Path 895" class="cls-2" d="M575.45,589.78H508.58L478,631.52h71.68l25.82-32.58Z"/><rect id="Rectangle_1382" data-name="Rectangle 1382" class="cls-3" x="477.58" y="630.99" width="70" height="137"/><g id="Group_1396" data-name="Group 1396"><g id="Group_1390-13" data-name="Group 1390-13"><path id="Path_892-13" data-name="Path 892-13" class="cls-6" d="M437.86,662.73v22.58H415.94Z"/><path id="Path_893-13" data-name="Path 893-13" class="cls-4" d="M437.86,662.73v22.58h21.91Z"/></g><g id="Group_1393-3" data-name="Group 1393-3"><g id="Group_1390-14" data-name="Group 1390-14"><path id="Path_892-14" data-name="Path 892-14" class="cls-6" d="M437.86,640.07v22.58H415.94Z"/><path id="Path_893-14" data-name="Path 893-14" class="cls-4" d="M437.86,640.07v22.58h21.91Z"/></g></g><g id="Group_1394-3" data-name="Group 1394-3"><g id="Group_1390-15" data-name="Group 1390-15"><path id="Path_892-15" data-name="Path 892-15" class="cls-6" d="M437.86,617.41V640H415.94Z"/><path id="Path_893-15" data-name="Path 893-15" class="cls-4" d="M437.86,617.41V640h21.91Z"/></g></g><g id="Group_1395-3" data-name="Group 1395-3"><g id="Group_1390-16" data-name="Group 1390-16"><path id="Path_892-16" data-name="Path 892-16" class="cls-6" d="M437.86,594.75v22.58H415.94Z"/><path id="Path_893-16" data-name="Path 893-16" class="cls-4" d="M437.86,594.75v22.58h21.91Z"/></g></g><rect id="Rectangle_1379-3" data-name="Rectangle 1379-3" class="cls-4" x="435.58" y="684.99" width="4" height="33"/></g><g id="Group_1415" data-name="Group 1415"><g id="Group_1390-17" data-name="Group 1390-17"><path id="Path_892-17" data-name="Path 892-17" class="cls-6" d="M1207.86,654.73v22.58h-21.92Z"/><path id="Path_893-17" data-name="Path 893-17" class="cls-4" d="M1207.86,654.73v22.58h21.91Z"/></g><g id="Group_1393-4" data-name="Group 1393-4"><g id="Group_1390-18" data-name="Group 1390-18"><path id="Path_892-18" data-name="Path 892-18" class="cls-6" d="M1207.86,632.07v22.58h-21.92Z"/><path id="Path_893-18" data-name="Path 893-18" class="cls-4" d="M1207.86,632.07v22.58h21.91Z"/></g></g><g id="Group_1394-4" data-name="Group 1394-4"><g id="Group_1390-19" data-name="Group 1390-19"><path id="Path_892-19" data-name="Path 892-19" class="cls-6" d="M1207.86,609.41V632h-21.92Z"/><path id="Path_893-19" data-name="Path 893-19" class="cls-4" d="M1207.86,609.41V632h21.91Z"/></g></g><g id="Group_1395-4" data-name="Group 1395-4"><g id="Group_1390-20" data-name="Group 1390-20"><path id="Path_892-20" data-name="Path 892-20" class="cls-6" d="M1207.86,586.75v22.58h-21.92Z"/><path id="Path_893-20" data-name="Path 893-20" class="cls-4" d="M1207.86,586.75v22.58h21.91Z"/></g></g><rect id="Rectangle_1379-4" data-name="Rectangle 1379-4" class="cls-4" x="1205.58" y="676.99" width="4" height="33"/></g><g id="Group_1416" data-name="Group 1416"><g id="Group_1390-21" data-name="Group 1390-21"><path id="Path_892-21" data-name="Path 892-21" class="cls-6" d="M1327.31,689.19v17.9h-17.37Z"/><path id="Path_893-21" data-name="Path 893-21" class="cls-4" d="M1327.31,689.19v17.9h17.38Z"/></g><g id="Group_1393-5" data-name="Group 1393-5"><g id="Group_1390-22" data-name="Group 1390-22"><path id="Path_892-22" data-name="Path 892-22" class="cls-6" d="M1327.31,671.23v17.9h-17.37Z"/><path id="Path_893-22" data-name="Path 893-22" class="cls-4" d="M1327.31,671.23v17.9h17.38Z"/></g></g><g id="Group_1394-5" data-name="Group 1394-5"><g id="Group_1390-23" data-name="Group 1390-23"><path id="Path_892-23" data-name="Path 892-23" class="cls-6" d="M1327.31,653.27v17.9h-17.37Z"/><path id="Path_893-23" data-name="Path 893-23" class="cls-4" d="M1327.31,653.27v17.9h17.38Z"/></g></g><g id="Group_1395-5" data-name="Group 1395-5"><g id="Group_1390-24" data-name="Group 1390-24"><path id="Path_892-24" data-name="Path 892-24" class="cls-6" d="M1327.31,635.31v17.9h-17.37Z"/><path id="Path_893-24" data-name="Path 893-24" class="cls-4" d="M1327.31,635.31v17.9h17.38Z"/></g></g><rect id="Rectangle_1379-5" data-name="Rectangle 1379-5" class="cls-4" x="1325.58" y="706.99" width="3" height="26"/></g><g id="Group_1418" data-name="Group 1418"><path id="Path_892-25" data-name="Path 892-25" class="cls-2" d="M1128.32,724.19v17.9h-17.38Z"/><path id="Path_893-25" data-name="Path 893-25" class="cls-6" d="M1128.31,724.19v17.9h17.38Z"/><path id="Path_892-26" data-name="Path 892-26" class="cls-2" d="M1128.32,706.23v17.9h-17.38Z"/><path id="Path_893-26" data-name="Path 893-26" class="cls-6" d="M1128.31,706.23v17.9h17.38Z"/><path id="Path_892-27" data-name="Path 892-27" class="cls-2" d="M1128.32,688.27v17.9h-17.38Z"/><path id="Path_893-27" data-name="Path 893-27" class="cls-6" d="M1128.31,688.27v17.9h17.38Z"/><path id="Path_892-28" data-name="Path 892-28" class="cls-2" d="M1128.32,670.31v17.9h-17.38Z"/><path id="Path_893-28" data-name="Path 893-28" class="cls-6" d="M1128.31,670.31v17.9h17.38Z"/><rect id="Rectangle_1379-6" data-name="Rectangle 1379-6" class="cls-6" x="1126.58" y="741.99" width="3" height="26"/></g><g id="Group_1402" data-name="Group 1402"><g id="Group_1390-25" data-name="Group 1390-25"><path id="Path_892-29" data-name="Path 892-29" class="cls-6" d="M373.54,673.62v12.79H361.13Z"/><path id="Path_893-29" data-name="Path 893-29" class="cls-4" d="M373.54,673.62v12.79H386Z"/></g><g id="Group_1393-6" data-name="Group 1393-6"><g id="Group_1390-26" data-name="Group 1390-26"><path id="Path_892-30" data-name="Path 892-30" class="cls-6" d="M373.54,660.79v12.79H361.13Z"/><path id="Path_893-30" data-name="Path 893-30" class="cls-4" d="M373.54,660.79v12.79H386Z"/></g></g><g id="Group_1394-6" data-name="Group 1394-6"><g id="Group_1390-27" data-name="Group 1390-27"><path id="Path_892-31" data-name="Path 892-31" class="cls-6" d="M373.54,648v12.79H361.13Z"/><path id="Path_893-31" data-name="Path 893-31" class="cls-4" d="M373.54,648v12.79H386Z"/></g></g><g id="Group_1395-6" data-name="Group 1395-6"><g id="Group_1390-28" data-name="Group 1390-28"><path id="Path_892-32" data-name="Path 892-32" class="cls-6" d="M373.54,635.12v12.79H361.13Z"/><path id="Path_893-32" data-name="Path 893-32" class="cls-4" d="M373.54,635.12v12.79H386Z"/></g></g><rect id="Rectangle_1379-7" data-name="Rectangle 1379-7" class="cls-4" x="372.58" y="686.99" width="2" height="18"/></g><g id="Group_1403" data-name="Group 1403"><g id="Group_1390-29" data-name="Group 1390-29"><path id="Path_892-33" data-name="Path 892-33" class="cls-6" d="M342.84,673.62v12.79H330.43Z"/><path id="Path_893-33" data-name="Path 893-33" class="cls-4" d="M342.84,673.62v12.79h12.41Z"/></g><g id="Group_1393-7" data-name="Group 1393-7"><g id="Group_1390-30" data-name="Group 1390-30"><path id="Path_892-34" data-name="Path 892-34" class="cls-6" d="M342.84,660.79v12.79H330.43Z"/><path id="Path_893-34" data-name="Path 893-34" class="cls-4" d="M342.84,660.79v12.79h12.41Z"/></g></g><g id="Group_1394-7" data-name="Group 1394-7"><g id="Group_1390-31" data-name="Group 1390-31"><path id="Path_892-35" data-name="Path 892-35" class="cls-6" d="M342.84,648v12.79H330.43Z"/><path id="Path_893-35" data-name="Path 893-35" class="cls-4" d="M342.84,648v12.79h12.41Z"/></g></g><g id="Group_1395-7" data-name="Group 1395-7"><g id="Group_1390-32" data-name="Group 1390-32"><path id="Path_892-36" data-name="Path 892-36" class="cls-6" d="M342.84,635.12v12.79H330.43Z"/><path id="Path_893-36" data-name="Path 893-36" class="cls-4" d="M342.84,635.12v12.79h12.41Z"/></g></g><rect id="Rectangle_1379-8" data-name="Rectangle 1379-8" class="cls-4" x="341.58" y="686.99" width="3" height="18"/></g><rect id="Rectangle_1380" data-name="Rectangle 1380" class="cls-4" x="545.58" y="630.99" width="60" height="137"/><g id="Group_1398" data-name="Group 1398"><path id="Path_894-2" data-name="Path 894-2" class="cls-6" d="M578,733a8.81,8.81,0,1,1-8.82,8.81h0A8.81,8.81,0,0,1,578,733Z"/><rect id="Rectangle_1381-2" data-name="Rectangle 1381-2" class="cls-6" x="569.14" y="741.77" width="17.68" height="26.1"/></g><path id="Polygon_21" data-name="Polygon 21" class="cls-4" d="M575.58,590l30,41h-60Z"/><rect id="Rectangle_1383" data-name="Rectangle 1383" class="cls-2" x="490.47" y="645.59" width="8.13" height="8.13" transform="translate(-314.53 539.97) rotate(-45)"/><rect id="Rectangle_1388" data-name="Rectangle 1388" class="cls-2" x="490.47" y="662.39" width="8.13" height="8.13" transform="translate(-326.41 544.89) rotate(-45)"/><rect id="Rectangle_1391" data-name="Rectangle 1391" class="cls-2" x="490.47" y="679.18" width="8.13" height="8.13" transform="translate(-338.28 549.81) rotate(-45)"/><rect id="Rectangle_1384" data-name="Rectangle 1384" class="cls-2" x="507.81" y="645.59" width="8.13" height="8.13" transform="translate(-309.45 552.23) rotate(-45)"/><rect id="Rectangle_1387" data-name="Rectangle 1387" class="cls-2" x="507.81" y="662.39" width="8.13" height="8.13" transform="translate(-321.33 557.15) rotate(-45)"/><rect id="Rectangle_1390" data-name="Rectangle 1390" class="cls-2" x="507.81" y="679.18" width="8.13" height="8.13" transform="translate(-333.2 562.07) rotate(-45)"/><rect id="Rectangle_1385" data-name="Rectangle 1385" class="cls-2" x="525.15" y="645.59" width="8.13" height="8.13" transform="translate(-304.37 564.49) rotate(-45)"/><rect id="Rectangle_1386" data-name="Rectangle 1386" class="cls-2" x="525.15" y="662.39" width="8.13" height="8.13" transform="translate(-316.25 569.41) rotate(-45)"/><rect id="Rectangle_1389" data-name="Rectangle 1389" class="cls-2" x="525.15" y="679.18" width="8.13" height="8.13" transform="translate(-328.13 574.33) rotate(-45)"/><rect id="Rectangle_1393" data-name="Rectangle 1393" class="cls-8" x="685.58" y="573.99" width="147" height="194"/><rect id="Rectangle_1392" data-name="Rectangle 1392" class="cls-9" x="605.58" y="574.99" width="82" height="193"/><path id="Path_896" data-name="Path 896" class="cls-7" d="M605.31,520.35H752.06l80.73,54.45H686.49Z"/><path id="Path_897" data-name="Path 897" class="cls-9" d="M605.25,520.2l82.2,54.74h-82.2Z"/><rect id="Rectangle_1394" data-name="Rectangle 1394" class="cls-7" x="701.58" y="589.99" width="12" height="24"/><rect id="Rectangle_1419" data-name="Rectangle 1419" class="cls-8" x="659.58" y="589.99" width="11" height="12"/><rect id="Rectangle_1422" data-name="Rectangle 1422" class="cls-8" x="659.58" y="616.99" width="11" height="12"/><rect id="Rectangle_1424" data-name="Rectangle 1424" class="cls-8" x="659.58" y="643.99" width="11" height="12"/><rect id="Rectangle_1426" data-name="Rectangle 1426" class="cls-8" x="659.58" y="670.99" width="11" height="12"/><rect id="Rectangle_1420" data-name="Rectangle 1420" class="cls-8" x="632.58" y="589.99" width="12" height="12"/><rect id="Rectangle_1450" data-name="Rectangle 1450" class="cls-9" x="988.58" y="549.99" width="12" height="12"/><rect id="Rectangle_1459" data-name="Rectangle 1459" class="cls-9" x="988.58" y="585.99" width="12" height="12"/><rect id="Rectangle_1451" data-name="Rectangle 1451" class="cls-9" x="1030.58" y="549.99" width="12" height="12"/><rect id="Rectangle_1458" data-name="Rectangle 1458" class="cls-9" x="1030.58" y="585.99" width="12" height="12"/><rect id="Rectangle_1460" data-name="Rectangle 1460" class="cls-9" x="1030.58" y="627.99" width="12" height="12"/><rect id="Rectangle_1452" data-name="Rectangle 1452" class="cls-9" x="1072.58" y="549.99" width="12" height="12"/><rect id="Rectangle_1457" data-name="Rectangle 1457" class="cls-9" x="1072.58" y="585.99" width="12" height="12"/><rect id="Rectangle_1461" data-name="Rectangle 1461" class="cls-9" x="1072.58" y="627.99" width="12" height="12"/><rect id="Rectangle_1453" data-name="Rectangle 1453" class="cls-9" x="1114.58" y="549.99" width="12" height="12"/><rect id="Rectangle_1456" data-name="Rectangle 1456" class="cls-9" x="1114.58" y="585.99" width="12" height="12"/><rect id="Rectangle_1462" data-name="Rectangle 1462" class="cls-9" x="1114.58" y="627.99" width="12" height="12"/><rect id="Rectangle_1454" data-name="Rectangle 1454" class="cls-9" x="1156.58" y="549.99" width="12" height="12"/><rect id="Rectangle_1455" data-name="Rectangle 1455" class="cls-9" x="1156.58" y="585.99" width="12" height="12"/><rect id="Rectangle_1463" data-name="Rectangle 1463" class="cls-9" x="1156.58" y="627.99" width="12" height="12"/><rect id="Rectangle_1421" data-name="Rectangle 1421" class="cls-8" x="632.58" y="616.99" width="12" height="12"/><rect id="Rectangle_1423" data-name="Rectangle 1423" class="cls-8" x="632.58" y="643.99" width="12" height="12"/><rect id="Rectangle_1425" data-name="Rectangle 1425" class="cls-8" x="632.58" y="670.99" width="12" height="12"/><rect id="Rectangle_1399" data-name="Rectangle 1399" class="cls-7" x="701.58" y="628.99" width="12" height="25"/><rect id="Rectangle_1404" data-name="Rectangle 1404" class="cls-7" x="701.58" y="668.99" width="12" height="24"/><rect id="Rectangle_1409" data-name="Rectangle 1409" class="cls-7" x="701.58" y="707.99" width="12" height="25"/><rect id="Rectangle_1418" data-name="Rectangle 1418" class="cls-7" x="701.58" y="746.99" width="12" height="21"/><rect id="Rectangle_1395" data-name="Rectangle 1395" class="cls-7" x="727.58" y="589.99" width="12" height="24"/><rect id="Rectangle_1400" data-name="Rectangle 1400" class="cls-7" x="727.58" y="628.99" width="12" height="25"/><rect id="Rectangle_1405" data-name="Rectangle 1405" class="cls-7" x="727.58" y="668.99" width="12" height="24"/><rect id="Rectangle_1410" data-name="Rectangle 1410" class="cls-7" x="727.58" y="707.99" width="12" height="25"/><rect id="Rectangle_1417" data-name="Rectangle 1417" class="cls-7" x="727.58" y="746.99" width="12" height="21"/><rect id="Rectangle_1396" data-name="Rectangle 1396" class="cls-7" x="754.58" y="589.99" width="11" height="24"/><rect id="Rectangle_1465" data-name="Rectangle 1465" class="cls-3" x="1266.58" y="279.49" width="18" height="8"/><rect id="Rectangle_1470" data-name="Rectangle 1470" class="cls-3" x="1266.58" y="297.49" width="18" height="8"/><rect id="Rectangle_1473" data-name="Rectangle 1473" class="cls-3" x="1266.58" y="315.49" width="18" height="8"/><rect id="Rectangle_1476" data-name="Rectangle 1476" class="cls-3" x="1266.58" y="333.49" width="18" height="8"/><rect id="Rectangle_1479" data-name="Rectangle 1479" class="cls-3" x="1266.58" y="351.49" width="18" height="8"/><rect id="Rectangle_1482" data-name="Rectangle 1482" class="cls-3" x="1266.58" y="369.49" width="18" height="8"/><rect id="Rectangle_1485" data-name="Rectangle 1485" class="cls-3" x="1266.58" y="387.49" width="18" height="8"/><rect id="Rectangle_1466" data-name="Rectangle 1466" class="cls-3" x="1296.58" y="279.49" width="18" height="8"/><rect id="Rectangle_1469" data-name="Rectangle 1469" class="cls-3" x="1296.58" y="297.49" width="18" height="8"/><rect id="Rectangle_1472" data-name="Rectangle 1472" class="cls-3" x="1296.58" y="315.49" width="18" height="8"/><rect id="Rectangle_1475" data-name="Rectangle 1475" class="cls-3" x="1296.58" y="333.49" width="18" height="8"/><rect id="Rectangle_1478" data-name="Rectangle 1478" class="cls-3" x="1296.58" y="351.49" width="18" height="8"/><rect id="Rectangle_1481" data-name="Rectangle 1481" class="cls-3" x="1296.58" y="369.49" width="18" height="8"/><rect id="Rectangle_1484" data-name="Rectangle 1484" class="cls-3" x="1296.58" y="387.49" width="18" height="8"/><rect id="Rectangle_1467" data-name="Rectangle 1467" class="cls-3" x="1326.58" y="279.49" width="18" height="8"/><rect id="Rectangle_1468" data-name="Rectangle 1468" class="cls-3" x="1326.58" y="297.49" width="18" height="8"/><rect id="Rectangle_1471" data-name="Rectangle 1471" class="cls-3" x="1326.58" y="315.49" width="18" height="8"/><rect id="Rectangle_1474" data-name="Rectangle 1474" class="cls-3" x="1326.58" y="333.49" width="18" height="8"/><rect id="Rectangle_1477" data-name="Rectangle 1477" class="cls-3" x="1326.58" y="351.49" width="18" height="8"/><rect id="Rectangle_1480" data-name="Rectangle 1480" class="cls-3" x="1326.58" y="369.49" width="18" height="8"/><rect id="Rectangle_1483" data-name="Rectangle 1483" class="cls-3" x="1326.58" y="387.49" width="18" height="8"/><rect id="Rectangle_1401" data-name="Rectangle 1401" class="cls-7" x="754.58" y="628.99" width="11" height="25"/><rect id="Rectangle_1406" data-name="Rectangle 1406" class="cls-7" x="754.58" y="668.99" width="11" height="24"/><rect id="Rectangle_1411" data-name="Rectangle 1411" class="cls-7" x="754.58" y="707.99" width="11" height="25"/><rect id="Rectangle_1416" data-name="Rectangle 1416" class="cls-7" x="754.58" y="746.99" width="11" height="21"/><rect id="Rectangle_1397" data-name="Rectangle 1397" class="cls-7" x="780.58" y="589.99" width="12" height="24"/><rect id="Rectangle_1402" data-name="Rectangle 1402" class="cls-7" x="780.58" y="628.99" width="12" height="25"/><rect id="Rectangle_1407" data-name="Rectangle 1407" class="cls-7" x="780.58" y="668.99" width="12" height="24"/><rect id="Rectangle_1412" data-name="Rectangle 1412" class="cls-7" x="780.58" y="707.99" width="12" height="25"/><rect id="Rectangle_1415" data-name="Rectangle 1415" class="cls-7" x="780.58" y="746.99" width="12" height="21"/><rect id="Rectangle_1398" data-name="Rectangle 1398" class="cls-7" x="806.58" y="589.99" width="12" height="24"/><rect id="Rectangle_1489" data-name="Rectangle 1489" class="cls-3" x="937.58" y="484.99" width="7" height="27"/><g class="cls-11"><g id="Repeat_Grid_1" data-name="Repeat Grid 1"><rect id="Rectangle_1493" data-name="Rectangle 1493" class="cls-7" x="832.58" y="167.99" width="45" height="4"/><rect id="Rectangle_1493-2" data-name="Rectangle 1493-2" class="cls-7" x="832.58" y="182.99" width="45" height="4"/><rect id="Rectangle_1493-3" data-name="Rectangle 1493-3" class="cls-7" x="832.58" y="197.99" width="45" height="4"/><rect id="Rectangle_1493-4" data-name="Rectangle 1493-4" class="cls-7" x="832.58" y="212.99" width="45" height="4"/><rect id="Rectangle_1493-5" data-name="Rectangle 1493-5" class="cls-7" x="832.58" y="227.99" width="45" height="4"/><rect id="Rectangle_1493-6" data-name="Rectangle 1493-6" class="cls-7" x="832.58" y="242.99" width="45" height="4"/><rect id="Rectangle_1493-7" data-name="Rectangle 1493-7" class="cls-7" x="832.58" y="257.99" width="45" height="4"/><rect id="Rectangle_1493-8" data-name="Rectangle 1493-8" class="cls-7" x="832.58" y="272.99" width="45" height="4"/><rect id="Rectangle_1493-9" data-name="Rectangle 1493-9" class="cls-7" x="832.58" y="287.99" width="45" height="4"/><rect id="Rectangle_1493-10" data-name="Rectangle 1493-10" class="cls-7" x="832.58" y="302.99" width="45" height="4"/><rect id="Rectangle_1493-11" data-name="Rectangle 1493-11" class="cls-7" x="832.58" y="317.99" width="45" height="4"/><rect id="Rectangle_1493-12" data-name="Rectangle 1493-12" class="cls-7" x="832.58" y="332.99" width="45" height="4"/><rect id="Rectangle_1493-13" data-name="Rectangle 1493-13" class="cls-7" x="832.58" y="347.99" width="45" height="4"/><rect id="Rectangle_1493-14" data-name="Rectangle 1493-14" class="cls-7" x="832.58" y="362.99" width="45" height="4"/></g></g><g class="cls-12"><g id="Repeat_Grid_2" data-name="Repeat Grid 2"><rect id="Rectangle_1493-15" data-name="Rectangle 1493-15" class="cls-9" x="877.58" y="167.99" width="81" height="4"/><rect id="Rectangle_1493-16" data-name="Rectangle 1493-16" class="cls-9" x="932.58" y="167.99" width="81" height="4"/><rect id="Rectangle_1493-17" data-name="Rectangle 1493-17" class="cls-9" x="877.58" y="182.99" width="81" height="4"/><rect id="Rectangle_1493-18" data-name="Rectangle 1493-18" class="cls-9" x="932.58" y="182.99" width="81" height="4"/><rect id="Rectangle_1493-19" data-name="Rectangle 1493-19" class="cls-9" x="877.58" y="197.99" width="81" height="4"/><rect id="Rectangle_1493-20" data-name="Rectangle 1493-20" class="cls-9" x="932.58" y="197.99" width="81" height="4"/><rect id="Rectangle_1493-21" data-name="Rectangle 1493-21" class="cls-9" x="877.58" y="212.99" width="81" height="4"/><rect id="Rectangle_1493-22" data-name="Rectangle 1493-22" class="cls-9" x="932.58" y="212.99" width="81" height="4"/><rect id="Rectangle_1493-23" data-name="Rectangle 1493-23" class="cls-9" x="877.58" y="227.99" width="81" height="4"/><rect id="Rectangle_1493-24" data-name="Rectangle 1493-24" class="cls-9" x="932.58" y="227.99" width="81" height="4"/><rect id="Rectangle_1493-25" data-name="Rectangle 1493-25" class="cls-9" x="877.58" y="242.99" width="81" height="4"/><rect id="Rectangle_1493-26" data-name="Rectangle 1493-26" class="cls-9" x="932.58" y="242.99" width="81" height="4"/><rect id="Rectangle_1493-27" data-name="Rectangle 1493-27" class="cls-9" x="877.58" y="257.99" width="81" height="4"/><rect id="Rectangle_1493-28" data-name="Rectangle 1493-28" class="cls-9" x="932.58" y="257.99" width="81" height="4"/><rect id="Rectangle_1493-29" data-name="Rectangle 1493-29" class="cls-9" x="877.58" y="272.99" width="81" height="4"/><rect id="Rectangle_1493-30" data-name="Rectangle 1493-30" class="cls-9" x="932.58" y="272.99" width="81" height="4"/><rect id="Rectangle_1493-31" data-name="Rectangle 1493-31" class="cls-9" x="877.58" y="287.99" width="81" height="4"/><rect id="Rectangle_1493-32" data-name="Rectangle 1493-32" class="cls-9" x="932.58" y="287.99" width="81" height="4"/><rect id="Rectangle_1493-33" data-name="Rectangle 1493-33" class="cls-9" x="877.58" y="302.99" width="81" height="4"/><rect id="Rectangle_1493-34" data-name="Rectangle 1493-34" class="cls-9" x="932.58" y="302.99" width="81" height="4"/><rect id="Rectangle_1493-35" data-name="Rectangle 1493-35" class="cls-9" x="877.58" y="317.99" width="81" height="4"/><rect id="Rectangle_1493-36" data-name="Rectangle 1493-36" class="cls-9" x="932.58" y="317.99" width="81" height="4"/><rect id="Rectangle_1493-37" data-name="Rectangle 1493-37" class="cls-9" x="877.58" y="332.99" width="81" height="4"/><rect id="Rectangle_1493-38" data-name="Rectangle 1493-38" class="cls-9" x="932.58" y="332.99" width="81" height="4"/><rect id="Rectangle_1493-39" data-name="Rectangle 1493-39" class="cls-9" x="877.58" y="347.99" width="81" height="4"/><rect id="Rectangle_1493-40" data-name="Rectangle 1493-40" class="cls-9" x="932.58" y="347.99" width="81" height="4"/><rect id="Rectangle_1493-41" data-name="Rectangle 1493-41" class="cls-9" x="877.58" y="362.99" width="81" height="4"/><rect id="Rectangle_1493-42" data-name="Rectangle 1493-42" class="cls-9" x="932.58" y="362.99" width="81" height="4"/></g></g><rect id="Rectangle_1490" data-name="Rectangle 1490" class="cls-3" x="937.58" y="519.99" width="7" height="27"/><rect id="Rectangle_1403" data-name="Rectangle 1403" class="cls-7" x="806.58" y="628.99" width="12" height="25"/><rect id="Rectangle_1408" data-name="Rectangle 1408" class="cls-7" x="806.58" y="668.99" width="12" height="24"/><rect id="Rectangle_1413" data-name="Rectangle 1413" class="cls-7" x="806.58" y="707.99" width="12" height="25"/><rect id="Rectangle_1414" data-name="Rectangle 1414" class="cls-7" x="806.58" y="746.99" width="12" height="21"/><path id="Polygon_22" data-name="Polygon 22" class="cls-3" d="M760.08,335l72.5,45h-145Z"/><path id="Path_898" data-name="Path 898" class="cls-2" d="M759.92,335.27V287l-72.84,45.18v48.11Z"/><path id="Path_899" data-name="Path 899" class="cls-4" d="M759.83,335.27V287l72.84,45.18v48.11Z"/><g id="Group_1399" data-name="Group 1399"><rect id="Rectangle_1428" data-name="Rectangle 1428" class="cls-2" x="756.11" y="370.04" width="8.13" height="8.13" transform="translate(-41.88 647.1) rotate(-45)"/><rect id="Rectangle_1429" data-name="Rectangle 1429" class="cls-2" x="709.03" y="402.2" width="8.13" height="8.13"/><rect id="Rectangle_1438" data-name="Rectangle 1438" class="cls-2" x="709.03" y="432.9" width="8.13" height="8.13"/><rect id="Rectangle_1443" data-name="Rectangle 1443" class="cls-2" x="709.03" y="463.6" width="8.13" height="8.13"/><rect id="Rectangle_1430" data-name="Rectangle 1430" class="cls-2" x="732.42" y="402.2" width="8.13" height="8.13"/><rect id="Rectangle_1437" data-name="Rectangle 1437" class="cls-2" x="732.42" y="432.9" width="8.13" height="8.13"/><rect id="Rectangle_1442" data-name="Rectangle 1442" class="cls-2" x="732.42" y="463.6" width="8.13" height="8.13"/><rect id="Rectangle_1431" data-name="Rectangle 1431" class="cls-2" x="755.81" y="402.2" width="8.13" height="8.13"/><rect id="Rectangle_1436" data-name="Rectangle 1436" class="cls-2" x="755.81" y="432.9" width="8.13" height="8.13"/><rect id="Rectangle_1441" data-name="Rectangle 1441" class="cls-2" x="755.81" y="463.6" width="8.13" height="8.13"/><rect id="Rectangle_1432" data-name="Rectangle 1432" class="cls-2" x="779.2" y="402.2" width="8.13" height="8.13"/><rect id="Rectangle_1435" data-name="Rectangle 1435" class="cls-2" x="779.2" y="432.9" width="8.13" height="8.13"/><rect id="Rectangle_1440" data-name="Rectangle 1440" class="cls-2" x="779.2" y="463.6" width="8.13" height="8.13"/><rect id="Rectangle_1433" data-name="Rectangle 1433" class="cls-2" x="801.86" y="402.2" width="8.13" height="8.13"/><rect id="Rectangle_1434" data-name="Rectangle 1434" class="cls-2" x="801.86" y="432.9" width="8.13" height="8.13"/><rect id="Rectangle_1439" data-name="Rectangle 1439" class="cls-2" x="801.86" y="463.6" width="8.13" height="8.13"/></g><rect id="Rectangle_1445" data-name="Rectangle 1445" class="cls-3" x="832.58" y="692.99" width="76" height="75"/><path id="Path_900" data-name="Path 900" class="cls-4" d="M866,666.68h76l-33.45,26.67h-76Z"/><path id="Path_901" data-name="Path 901" class="cls-4" d="M905.62,597.59h94.87L958.73,629H866.18Z"/><path id="Path_902" data-name="Path 902" class="cls-2" d="M1000.58,768V597.59L958,629V768Z"/><rect id="Rectangle_1446" data-name="Rectangle 1446" class="cls-3" x="866.58" y="628.99" width="92" height="139"/><g id="Group_1404" data-name="Group 1404"><path id="Path_894-3" data-name="Path 894-3" class="cls-2" d="M886.57,643.78a5.78,5.78,0,1,1-5.77,5.78h0A5.77,5.77,0,0,1,886.57,643.78Z"/><rect id="Rectangle_1381-3" data-name="Rectangle 1381-3" class="cls-2" x="880.8" y="649.56" width="11.6" height="11.14"/></g><g id="Group_1424" data-name="Group 1424"><path id="Path_894-4" data-name="Path 894-4" class="cls-2" d="M1221.23,231.73a4.43,4.43,0,1,1-4.44,4.43,4.43,4.43,0,0,1,4.44-4.43Z"/><rect id="Rectangle_1381-4" data-name="Rectangle 1381-4" class="cls-2" x="1216.79" y="236.16" width="8.89" height="8.54"/></g><g id="Group_1425" data-name="Group 1425"><path id="Path_894-5" data-name="Path 894-5" class="cls-2" d="M1241.23,231.73a4.43,4.43,0,1,1-4.44,4.43,4.43,4.43,0,0,1,4.44-4.43Z"/><rect id="Rectangle_1381-5" data-name="Rectangle 1381-5" class="cls-2" x="1236.79" y="236.16" width="8.89" height="8.54"/></g><g id="Group_1426" data-name="Group 1426"><path id="Path_894-6" data-name="Path 894-6" class="cls-2" d="M1260.23,231.73a4.43,4.43,0,1,1-4.44,4.43,4.43,4.43,0,0,1,4.44-4.43Z"/><rect id="Rectangle_1381-6" data-name="Rectangle 1381-6" class="cls-2" x="1255.79" y="236.16" width="8.89" height="8.54"/></g><g id="Group_1407" data-name="Group 1407"><path id="Path_894-7" data-name="Path 894-7" class="cls-2" d="M886.57,675.21A5.78,5.78,0,1,1,880.8,681h0A5.77,5.77,0,0,1,886.57,675.21Z"/><rect id="Rectangle_1381-7" data-name="Rectangle 1381-7" class="cls-2" x="880.8" y="680.99" width="11.6" height="11.14"/></g><g id="Group_1405" data-name="Group 1405"><path id="Path_894-8" data-name="Path 894-8" class="cls-2" d="M912.16,643.78a5.78,5.78,0,1,1-5.78,5.78h0A5.78,5.78,0,0,1,912.16,643.78Z"/><rect id="Rectangle_1381-8" data-name="Rectangle 1381-8" class="cls-2" x="906.38" y="649.56" width="11.6" height="11.14"/></g><g id="Group_1408" data-name="Group 1408"><path id="Path_894-9" data-name="Path 894-9" class="cls-2" d="M912.16,675.21a5.78,5.78,0,1,1-5.78,5.78h0A5.78,5.78,0,0,1,912.16,675.21Z"/><rect id="Rectangle_1381-9" data-name="Rectangle 1381-9" class="cls-2" x="906.38" y="680.99" width="11.6" height="11.14"/></g><g id="Group_1406" data-name="Group 1406"><path id="Path_894-10" data-name="Path 894-10" class="cls-2" d="M937.74,643.78a5.78,5.78,0,1,1-5.78,5.78h0A5.78,5.78,0,0,1,937.74,643.78Z"/><rect id="Rectangle_1381-10" data-name="Rectangle 1381-10" class="cls-2" x="931.96" y="649.56" width="11.6" height="11.14"/></g><g id="Group_1409" data-name="Group 1409"><path id="Path_894-11" data-name="Path 894-11" class="cls-2" d="M937.74,675.21A5.78,5.78,0,1,1,932,681h0A5.78,5.78,0,0,1,937.74,675.21Z"/><rect id="Rectangle_1381-11" data-name="Rectangle 1381-11" class="cls-2" x="931.96" y="680.99" width="11.6" height="11.14"/></g><g id="Group_1410" data-name="Group 1410"><g id="Group_1390-33" data-name="Group 1390-33"><path id="Path_892-37" data-name="Path 892-37" class="cls-6" d="M867.61,708V767.9H854.48Z"/><path id="Path_893-37" data-name="Path 893-37" class="cls-4" d="M867.61,708V767.9h13.12Z"/></g></g><g id="Group_1411" data-name="Group 1411"><g id="Group_1390-34" data-name="Group 1390-34"><path id="Path_892-38" data-name="Path 892-38" class="cls-6" d="M958.24,708V767.9H945.11Z"/><path id="Path_893-38" data-name="Path 893-38" class="cls-4" d="M958.24,708V767.9h13.12Z"/></g></g><g id="Group_1412" data-name="Group 1412"><g id="Group_1390-35" data-name="Group 1390-35"><path id="Path_892-39" data-name="Path 892-39" class="cls-6" d="M912.19,708V767.9H899.07Z"/><path id="Path_893-39" data-name="Path 893-39" class="cls-4" d="M912.19,708V767.9h13.13Z"/></g></g><path id="Polygon_23" data-name="Polygon 23" class="cls-2" d="M877.58,380l45,90h-90Z"/><rect id="Rectangle_1512" data-name="Rectangle 1512" class="cls-7" x="1112.26" y="146.59" width="8.13" height="8.13" transform="translate(220.44 833.49) rotate(-45)"/><rect id="Rectangle_1513" data-name="Rectangle 1513" class="cls-7" x="1112.26" y="169.59" width="8.13" height="8.13" transform="translate(204.17 840.22) rotate(-45)"/><rect id="Rectangle_1516" data-name="Rectangle 1516" class="cls-7" x="1102.26" y="196.59" width="8.13" height="8.13"/><rect id="Rectangle_1527" data-name="Rectangle 1527" class="cls-9" x="1161.26" y="196.59" width="8.13" height="8.13"/><rect id="Rectangle_1519" data-name="Rectangle 1519" class="cls-7" x="1102.26" y="221.59" width="8.13" height="8.13"/><rect id="Rectangle_1528" data-name="Rectangle 1528" class="cls-9" x="1161.26" y="221.59" width="8.13" height="8.13"/><rect id="Rectangle_1521" data-name="Rectangle 1521" class="cls-7" x="1102.26" y="246.59" width="8.13" height="8.13"/><rect id="Rectangle_1531" data-name="Rectangle 1531" class="cls-9" x="1161.26" y="246.59" width="8.13" height="8.13"/><rect id="Rectangle_1523" data-name="Rectangle 1523" class="cls-7" x="1102.26" y="271.59" width="8.13" height="8.13"/><rect id="Rectangle_1532" data-name="Rectangle 1532" class="cls-9" x="1161.26" y="271.59" width="8.13" height="8.13"/><rect id="Rectangle_1524" data-name="Rectangle 1524" class="cls-7" x="1102.26" y="296.59" width="8.13" height="8.13"/><rect id="Rectangle_1535" data-name="Rectangle 1535" class="cls-9" x="1161.26" y="296.59" width="8.13" height="8.13"/><rect id="Rectangle_1517" data-name="Rectangle 1517" class="cls-7" x="1124.26" y="196.59" width="8.13" height="8.13"/><rect id="Rectangle_1526" data-name="Rectangle 1526" class="cls-9" x="1183.26" y="196.59" width="8.13" height="8.13"/><rect id="Rectangle_1518" data-name="Rectangle 1518" class="cls-7" x="1124.26" y="221.59" width="8.13" height="8.13"/><rect id="Rectangle_1529" data-name="Rectangle 1529" class="cls-9" x="1183.26" y="221.59" width="8.13" height="8.13"/><rect id="Rectangle_1520" data-name="Rectangle 1520" class="cls-7" x="1124.26" y="246.59" width="8.13" height="8.13"/><rect id="Rectangle_1530" data-name="Rectangle 1530" class="cls-9" x="1183.26" y="246.59" width="8.13" height="8.13"/><rect id="Rectangle_1522" data-name="Rectangle 1522" class="cls-7" x="1124.26" y="271.59" width="8.13" height="8.13"/><rect id="Rectangle_1525" data-name="Rectangle 1525" class="cls-7" x="1124.26" y="296.59" width="8.13" height="8.13"/><path id="Path_923" data-name="Path 923" class="cls-9" d="M1244.79,470h0l44.32,50h-82.53Z"/><rect id="Rectangle_1515" data-name="Rectangle 1515" class="cls-9" x="1172.26" y="146.59" width="8.13" height="8.13" transform="translate(238.01 875.91) rotate(-45)"/><rect id="Rectangle_1514" data-name="Rectangle 1514" class="cls-9" x="1172.26" y="169.59" width="8.13" height="8.13" transform="translate(221.75 882.65) rotate(-45)"/><rect id="Rectangle_1607" data-name="Rectangle 1607" class="cls-4" x="1307.26" y="492.59" width="8.13" height="8.13" transform="translate(32.89 1072.71) rotate(-45)"/><rect id="Rectangle_1610" data-name="Rectangle 1610" class="cls-4" x="1307.26" y="521.59" width="8.13" height="8.13" transform="translate(12.38 1081.21) rotate(-45)"/><rect id="Rectangle_1612" data-name="Rectangle 1612" class="cls-4" x="1307.26" y="550.59" width="8.13" height="8.13" transform="translate(-8.12 1089.7) rotate(-45)"/><rect id="Rectangle_1608" data-name="Rectangle 1608" class="cls-4" x="1335.26" y="492.59" width="8.13" height="8.13" transform="translate(41.09 1092.51) rotate(-45)"/><rect id="Rectangle_1609" data-name="Rectangle 1609" class="cls-4" x="1335.26" y="521.59" width="8.13" height="8.13" transform="translate(20.59 1101.01) rotate(-45)"/><rect id="Rectangle_1611" data-name="Rectangle 1611" class="cls-4" x="1335.26" y="550.59" width="8.13" height="8.13" transform="translate(0.08 1109.5) rotate(-45)"/><path id="Path_932" data-name="Path 932" class="cls-2" d="M99.58,549.05s2.46-15.56,21.63-12.73c-2.23-11.15,7.21-15.57,15.94-16.56s17.27,2.74,17.42,12.45c10-2.63,25.18-2.59,26.37,16.84Z"/><path id="Path_935" data-name="Path 935" class="cls-4" d="M646.81,149.28h0c4.18-2.28,10.69-5.23,15.79-2.43.83-2.92,2.28-5.66,9.7-10.49a32.57,32.57,0,0,0-7.81,14.17C656.49,146.78,647.6,149.22,646.81,149.28Z"/><path id="Path_938" data-name="Path 938" class="cls-4" d="M476.76,466.34h0c6.83-.2,17.06.28,21.77,7.16,3-3.18,6.59-5.74,19.23-7.08a46.83,46.83,0,0,0-19.21,13C490.77,469.44,477.81,466.77,476.76,466.34Z"/><path id="Path_937" data-name="Path 937" class="cls-4" d="M156.59,640.46h0c4.75.36,11.81,1.43,14.57,6.56,2.29-2,5-3.51,13.85-3.52a32.72,32.72,0,0,0-14.27,7.64C166.07,643.63,157.28,640.84,156.59,640.46Z"/><path id="Path_936" data-name="Path 936" class="cls-4" d="M1026.51,123h0c7,1.52,17.18,4.58,20.2,12.73,3.8-2.47,8.12-4.15,21.23-2.32a48.81,48.81,0,0,0-22.71,8.33C1039.89,129.7,1027.46,123.73,1026.51,123Z"/><path id="Path_992" data-name="Path 992" class="cls-9" d="M1078.32,415h20.76a5.5,5.5,0,0,1,0,11h-22.9Z"/><path id="Rectangle_1598" data-name="Rectangle 1598" class="cls-9" d="M1113.58,415h11a2,2,0,0,1,2,2v21h-15V417A2,2,0,0,1,1113.58,415Z"/><rect id="Rectangle_1599" data-name="Rectangle 1599" class="cls-9" x="1132.58" y="414.99" width="57" height="11" rx="2"/><rect id="Rectangle_1601" data-name="Rectangle 1601" class="cls-4" x="1048.58" y="437.99" width="164" height="6"/><rect id="Rectangle_1602" data-name="Rectangle 1602" class="cls-4" x="1062.58" y="440.99" width="17" height="29"/><rect id="Rectangle_1603" data-name="Rectangle 1603" class="cls-4" x="1095.58" y="440.99" width="17" height="29"/><rect id="Rectangle_1604" data-name="Rectangle 1604" class="cls-4" x="1128.58" y="440.99" width="17" height="29"/><rect id="Rectangle_1605" data-name="Rectangle 1605" class="cls-4" x="1161.58" y="440.99" width="17" height="29"/><rect id="Rectangle_1606" data-name="Rectangle 1606" class="cls-4" x="1194.58" y="440.99" width="17" height="29"/><g class="cls-13"><g id="Group_1422" data-name="Group 1422"><circle id="Ellipse_60-5" data-name="Ellipse 60-5" class="cls-4" cx="114.58" cy="820.99" r="56"/><circle id="Ellipse_61-6" data-name="Ellipse 61-6" class="cls-4" cx="194.58" cy="805.99" r="76"/></g></g><g class="cls-14"><g id="Group_1400" data-name="Group 1400"><circle id="Ellipse_60-4" data-name="Ellipse 60-4" class="cls-4" cx="357.58" cy="790.99" r="56"/><circle id="Ellipse_61-5" data-name="Ellipse 61-5" class="cls-4" cx="437.58" cy="775.99" r="76"/><circle id="Ellipse_62-5" data-name="Ellipse 62-5" class="cls-4" cx="520.08" cy="798.49" r="49.5"/></g></g><g class="cls-15"><circle id="Ellipse_63" data-name="Ellipse 63" class="cls-4" cx="1096.58" cy="768.99" r="125"/><circle id="Ellipse_64" data-name="Ellipse 64" class="cls-4" cx="1254.58" cy="795.99" r="98"/><circle id="Ellipse_65" data-name="Ellipse 65" class="cls-4" cx="1372.08" cy="791.49" r="73.5"/></g><g class="cls-16"><g id="Group_1401" data-name="Group 1401"><circle id="Ellipse_60-3" data-name="Ellipse 60-3" class="cls-6" cx="313.58" cy="747.99" r="34"/><circle id="Ellipse_61-4" data-name="Ellipse 61-4" class="cls-6" cx="362.58" cy="738.99" r="46"/><circle id="Ellipse_62-4" data-name="Ellipse 62-4" class="cls-6" cx="412.58" cy="752.99" r="30"/></g></g><g id="Group_1413" data-name="Group 1413"><g id="Group_1390-10" data-name="Group 1390-10"><path id="Path_892-10" data-name="Path 892-10" class="cls-6" d="M100,673.84V768H67.47Z"/><path id="Path_893-10" data-name="Path 893-10" class="cls-4" d="M100,673.84V768h32.53Z"/></g></g></svg>